<svg version="1.1" id="Layer_1" xmlns="http://www.w3.org/2000/svg" xmlns:xlink="http://www.w3.org/1999/xlink" x="0px" y="0px"
width="1078px" height="250px" viewBox="100.5 272.5 1078 250" enable-background="new 100.5 272.5 1078 250" xml:space="preserve"
>
  <path fill="#04B404" d="M836.813,343.871c-39.256,0-71.07,31.351-71.07,70.038
    s31.814,70.039,71.07,70.039c39.257,0,71.07-31.352,71.07-70.039C907.883,375.221,876.068,343.871,836.813,343.871
    M836.768,460.336c-25.377,0-45.965-20.78-45.965-46.428c0-25.646,20.588-46.427,45.965-46.427s45.948,20.78,45.948,46.427
    C882.716,439.556,862.145,460.336,836.768,460.336"/>
  <path fill="#0DA8E0" d="M269.5,375.207l-70.293,0.21l-8.234,23.206h54.332v39.765
    c-11.393,9.238-25.856,14.747-41.606,14.747c-36.786,0-66.625-30.138-66.625-67.313s29.839-67.313,66.625-67.313
    c18.759,0,35.708,7.83,47.805,20.437l16.154-20.736c-16.753-15.391-39.196-24.793-63.884-24.793
    c-51.788,0-93.769,41.367-93.769,92.406s41.981,92.406,93.769,92.406c14.912,0,29.015-3.429,41.531-9.553
    c9.223-4.477,17.577-10.42,24.779-17.517v-52.537h0.239v-12.801v-10.615L269.5,375.207L269.5,375.207z"/>
  <polygon fill="#0DA8E0" points="299.024,294.074 323.229,290.332 323.229,470.741 299.024,474.734 		
    "/>
  <path d="M431.046,371.134c-0.599-0.329-1.018-0.674-1.228-0.868L431.046,371.134z"/>		
  <path  fill="#00B500" d="M430.881,376.345c-0.299,0.419-0.764,0.645-1.228,0.645
    c-0.3,0-0.6-0.09-0.854-0.285l-12.696-8.908l-21.425-15.002c-0.524-0.359-0.748-0.973-0.614-1.557
    c0.045-0.18,0.12-0.359,0.24-0.524c0.419-0.599,1.183-0.808,1.826-0.523c0.09,0.045,0.18,0.09,0.255,0.149l23.685,16.604
    l10.436,7.32C431.195,374.728,431.36,375.67,430.881,376.345"/>
  <path  fill="#00B500" d="M477.5,455.933c-0.155,0.29-0.416,0.511-0.756,0.643 c-0.163,0.051-0.313,0.086-0.478,0.092c-0.209,0.007-0.42-0.031-0.617-0.113c-0.381-0.15-0.69-0.456-0.84-0.87l-0.051-0.162
    l-1.291-3.476l-2.668-7.277l-0.017-0.059l-2.849-7.677l-6.776-18.443c-0.297-0.783,0.106-1.637,0.876-1.918
    c0.784-0.298,1.637,0.107,1.934,0.891l5.782,15.705l0.001,0.017l6.014,16.345l1.855,5.028
    C477.785,455.099,477.727,455.565,477.5,455.933"/>
  <path  fill="#00B500" d="M499.272,413.265c0-38.882-31.98-70.383-71.416-70.383
    c-10.195,0-19.897,2.112-28.671,5.899l25.153,17.637h0.075l5.24,3.698c0,0,0.029,0.03,0.075,0.075
    c0.015,0.015,0.045,0.045,0.09,0.074c0.209,0.195,0.629,0.539,1.227,0.868c0.015,0,0.03,0.016,0.045,0.016
    c0.704,0.375,1.647,0.688,2.8,0.719c2.591,0.06,2.92-4.327,2.949-4.671c21.365,4.236,37.445,23.251,37.445,46.066
    c0,0.256-0.026,0.503-0.03,0.758c-3.453-0.425-7.67-0.139-7.67,1.573c0,1.122,6.196,14.858,6.197,14.861l9.827,27.993
    C493.014,446.233,499.272,430.468,499.272,413.265"/>
  <path  fill="#11A9DE" d="M605.692,339.858c-17.138,0-32.771,6.521-44.661,17.244v-64.525
    l-22.712,3.493l0.262,106.257l0.016-0.006c-0.173,2.004-0.277,4.027-0.277,6.078c0,37.862,30.168,68.541,67.373,68.541
    c37.22,0,67.373-30.679,67.373-68.541C673.064,370.55,642.912,339.858,605.692,339.858 M605.198,455.485
    c-24.39,0-44.167-20.932-44.167-46.758c0-25.811,19.777-46.741,44.167-46.741c24.403,0,44.182,20.931,44.182,46.741
    C649.38,434.555,629.602,455.485,605.198,455.485"/>
  <path  fill="#04B404" d="M759.408,292.577c0,0-24.984-2.767-38.615,8.358
    c-20.711,16.906-15.658,43.17-15.658,43.17h-10.479l-7.485,21.335h17.592v108.67l22.458-2.994V365.939h32.938v-21.461H727.72
    c0,0-2.059-14.908,6.862-23.829c8.92-8.921,31.564-4.99,31.564-4.99L759.408,292.577z"/>
  <path  fill="#04B404" d="M923.35,344.479l22.207-3.742v20.212c0,0,12.479-20.961,41.674-20.961
    c29.193,0,40.424,20.462,40.424,42.171v88.583l-23.456,4.242v-91.328c0,0,0.249-23.206-27.449-21.958
    c-27.697,1.247-29.444,32.688-29.444,32.688v76.106l-23.954,4.491L923.35,344.479L923.35,344.479z"/>
  <path  fill="#00B500" d="M1112.742,454.152c-14.907-0.395-27.758-8.969-35.02-21.754l73.348-45.619
    l18.924-11.769c-3.219-6.333-7.336-12.052-12.188-17.008c-11.798-12.082-27.847-19.508-45.559-19.508
    c-36.247,0-65.637,31.156-65.637,69.589c0,6.348,0.809,12.486,2.306,18.311c1.752,6.798,4.462,13.177,7.965,18.954
    c11.647,19.255,32.099,32.313,55.366,32.324c24.822,0.015,47.086-8.803,55.784-21.215l-7.045-26.164
    C1144.371,452.775,1124.346,454.46,1112.742,454.152 M1071.314,408.085c0-24.629,17.713-44.586,40.935-44.586
    c8.862,0,17.396,2.815,24.567,7.695l-65.32,41.022C1071.376,410.854,1071.314,409.477,1071.314,408.085"/>
  <path  fill="#0DA8E0" d="M436.516,495.195v-12.079c15.092-1.8,28.731-8.222,39.416-17.811
    l-15.331-18.759c-8.413,8.459-20.003,13.685-32.804,13.685c-25.661,0-46.487-21.036-46.487-46.968
    c0-16.304,8.219-30.662,20.706-39.076l-14.852-18.76c-18.565,12.696-30.722,33.866-30.722,57.836
    c0,34.818,25.658,63.718,59.363,69.365v12.565h-15.97l-5.739,14.474h64.128l-4.989-14.474L436.516,495.195L436.516,495.195z"/>
</svg>
